<svg width="452" height="152" viewBox="0 0 452 152" fill="none" xmlns="http://www.w3.org/2000/svg">
<path d="M11.6875 72.6572C26.846 76.5881 60.8364 77.0138 62.3744 97.3526C62.7123 100.492 60.3425 103.475 57.2756 101.163C53.5672 98.791 53.3679 93.4819 54.6735 89.689C57.7151 84.888 63.0748 82.0423 67.9639 79.4286" stroke="#748B9B" stroke-width="3.4" stroke-linecap="round" stroke-linejoin="round"/>
<path d="M106.635 133.874C97.0819 136.796 87.3381 139.263 77.8442 142.446C65.216 146.286 54.0313 150.679 36.6933 147.313C28.4629 147.439 21.9892 144.848 14.5019 144.214C9.97596 143.831 10.6615 144.199 3 143.403" stroke="#748B9B" stroke-width="5.95702" stroke-linecap="round" stroke-linejoin="round"/>
<path d="M368.672 58.2906C367.332 58.4111 366.056 58.542 364.776 58.6391C360.613 58.9547 356.467 59.1795 352.32 58.2893C339.566 55.5518 334.888 43.4183 342.783 33.1196C346.819 27.8553 352.287 25.5824 358.85 27.2029C368.554 29.5995 373.733 36.1927 374.588 46.2795C374.684 47.4062 374.549 48.5498 374.536 49.6862C374.525 50.7883 374.533 51.8904 374.533 53.3904C375.665 53.4778 376.55 53.6495 377.419 53.5958C381.406 53.3515 385.363 53.3334 389.321 54.0875C390.771 54.3635 392.343 54.2346 393.829 54.0461C398.184 53.4927 402.462 53.4668 406.825 54.3454C410.511 55.0873 414.364 55.432 418.267 52.9712C417.274 52.6569 416.656 52.3433 416.013 52.2779C413.187 51.9941 411.607 50.2557 410.721 47.7755C410.088 46.0048 409.622 44.1737 409.08 42.3609C407.469 42.9563 408.241 46.0132 405.236 45.3245C405.114 44.4439 404.868 43.4189 404.851 42.3913C404.824 40.662 403.93 39.5742 402.515 38.7915C402.018 38.5161 401.52 38.1993 400.982 38.049C394.988 36.3767 389.33 33.4306 382.918 33.3289C382.199 33.3179 381.409 33.0885 380.798 32.7205C380.458 32.5151 380.417 31.8141 380.171 31.1474C383.773 30.252 387.12 30.7126 390.4 31.6605C394.034 32.7108 397.624 33.9211 401.222 35.0997C402.117 35.3925 403.068 35.686 403.818 36.2245C407.847 39.1168 412.5 39.6928 417.238 39.9506C420.547 40.1308 420.549 40.0873 424.84 42.1516C426.082 47.1283 423.918 51.214 420.885 55.0575C422.997 56.5846 425.014 57.977 426.957 59.4639C428.854 60.9153 429.957 62.8221 430.016 65.2835C430.118 69.5365 431.09 73.5218 433.677 77.0192C434.113 77.6101 434.407 78.3494 434.605 79.0647C435.301 81.5702 434.39 83.6403 432.004 84.6374C430.805 85.1383 429.469 85.4162 428.17 85.5497C426.673 85.7026 425.148 85.5854 423.584 85.5854C422.569 86.5475 421.672 87.9399 420.418 88.4381C419.11 88.9578 417.393 88.9111 415.97 88.5936C412.56 87.8317 410.293 85.6871 409.501 82.1851C409.126 80.5238 408.748 78.86 408.451 77.1838C408.034 74.8416 406.911 72.8784 405.105 71.4115C404.343 70.7921 403.193 70.6489 401.789 70.1306C401.788 72.3549 402.987 73.3669 403.94 74.3349C406.587 77.0244 406.739 80.5232 406.888 83.8405C407.065 87.8084 404.185 90.6793 400.354 91.1484C395.675 91.7198 391.909 89.697 391.181 85.5964C390.634 82.5181 389.007 80.4791 386.768 78.6837C383.41 75.9929 383.395 76.0143 385.018 71.7284C385.148 71.383 385.273 71.0254 385.321 70.6625C385.339 70.5329 385.121 70.3729 384.845 70.0068C383.813 71.3364 382.887 72.6678 381.819 73.8736C380.501 75.3606 378.578 75.737 377.237 74.8248C375.832 73.8697 375.388 72.4534 375.737 70.8401C376.135 68.9916 376.699 67.178 377.067 65.325C377.192 64.6959 376.937 63.9929 376.86 63.3625C375.223 63.216 375.001 64.3505 374.703 65.1112C373.876 67.2227 373.338 69.4483 372.484 71.5476C371.112 74.9193 369.054 76.1912 365.386 75.9683C361.889 75.7565 358.729 74.5176 355.999 72.318C354.833 71.3798 353.797 70.2822 352.697 69.2533C341.093 69.0149 329.608 67.2869 318.009 68.2879C311.39 68.8594 304.791 69.3337 298.358 71.1355C295.989 71.799 293.586 72.4741 291.153 72.7553C280.007 74.0421 269.837 78.0546 260.386 83.8664C247.224 91.9583 232.809 97.2511 218.581 102.967C216.091 103.967 213.717 105.033 211.575 106.63C208.965 108.574 206.068 109.844 202.943 110.826C196.79 112.759 190.553 114.296 184.288 115.809C176.568 117.673 168.943 119.975 161.365 122.363C151.964 125.326 142.574 128.211 132.774 129.646C124.158 130.91 115.49 132.007 107.223 135.002C105.295 135.7 103.494 134.945 103.508 133.685C103.525 132.016 104.844 131.414 106.132 131.157C112.633 129.861 119.139 128.583 125.674 127.478C129.783 126.784 133.956 126.484 138.079 125.87C145.793 124.72 153.211 122.374 160.583 119.935C169.58 116.959 178.657 114.361 187.926 112.327C194.017 110.991 199.945 108.916 205.944 107.165C206.307 107.059 206.678 106.94 207.003 106.752C219.026 99.8337 232.444 96.0602 244.846 89.999C247.565 88.6707 250.317 87.3963 252.95 85.9151C257.904 83.1284 262.724 80.1027 267.708 77.3743C272.715 74.6336 278.091 72.7871 283.665 71.5314C289.575 70.2006 295.482 68.8561 301.393 67.5318C302.317 67.3251 303.251 67.1126 304.19 67.0361C312.5 66.3604 320.805 65.4539 329.129 65.1663C333.441 65.0172 337.806 65.8744 342.12 66.466C347.451 67.1968 352.709 66.8171 357.962 65.8796C362.247 65.1157 365.711 62.9601 368.47 59.646C368.669 59.4063 368.586 58.9326 368.672 58.2906ZM371.705 54.3856C371.936 52.239 372.218 50.5726 372.278 48.8984C372.564 40.7638 369.231 34.7362 361.831 31.0424C354.609 27.4374 346.886 30.2137 343.476 37.8008C339.982 45.5732 343.344 51.4712 350.647 54.7393C351.334 55.0471 352.052 55.3872 352.785 55.4747C358.987 56.2185 365.173 56.5619 371.705 54.3856ZM355.156 68.6754C355.81 69.6032 356.024 70.2096 356.45 70.4623C359.442 72.2376 362.702 73.0825 366.188 73.0171C367.842 72.9866 369.119 72.3251 369.759 70.7254C370.6 68.6209 371.355 66.4802 372.261 64.405C372.783 63.2076 373.388 61.9934 374.21 60.995C375.103 59.9097 376.445 59.5968 377.822 60.0872C379.222 60.5861 380.069 61.6824 379.887 63.1253C379.63 65.165 379.053 67.1631 378.657 69.1879C378.46 70.1921 378.361 71.2152 378.168 72.5966C380.156 72.2234 380.666 70.9774 381.449 69.9706C382.481 68.6436 383.573 67.3251 384.834 66.2256C385.869 65.3218 387.776 66.1478 387.907 67.5247C388.027 68.8043 387.927 70.1384 387.702 71.4089C387.479 72.6691 386.981 73.8814 386.577 75.2012C388.505 76.635 390.257 77.938 392.004 79.2364C393.354 78.3967 394.568 77.8116 395.565 76.9713C396.501 76.1815 398.363 76.6512 398.568 74.3408C395.582 72.0407 394.181 68.2892 392.065 64.9965C389.558 61.0941 389.413 61.1874 388.635 56.6909C384.075 55.1521 379.433 55.6561 374.777 56.5768C373.353 56.8587 372.442 57.7457 371.798 58.9689C370.617 61.2146 368.673 62.7145 366.745 64.2566C363.536 66.8236 359.71 67.8143 355.156 68.6754ZM406.824 57.4068C407.109 58.5698 407.179 59.4944 407.554 60.2712C408.916 63.0942 411.165 65.1371 413.943 66.4336C416.605 67.6756 418.092 69.5494 418.378 72.4359C418.664 75.3366 420.081 77.7851 421.556 80.2005C422.606 81.9175 424.131 82.9496 426.161 83.0526C428.43 83.1686 430.638 83.017 431.918 81.1523C431.918 80.5186 431.989 80.2925 431.907 80.1571C429.146 75.577 427.436 70.7552 427.309 65.2835C427.222 61.5431 422.298 57.215 418.436 57.1075C414.709 57.0044 410.972 57.2837 406.824 57.4068ZM415.111 70.3723C409.887 67.7774 406.089 64.3667 403.807 59.2637C402.661 56.7012 400.175 55.5155 397.226 55.8874C395.921 56.0514 394.6 56.2289 393.341 56.5885C391.349 57.1567 390.674 58.7 391.585 60.5272C393.07 63.5037 395.068 65.9114 398.623 66.4861C399.552 66.6357 400.469 66.8787 401.382 67.1171C406.214 68.3767 409.043 71.6875 410.589 76.2359C411.255 78.1933 411.557 80.2925 412.368 82.1793C413.602 85.0476 415.44 85.7272 418.529 84.8616C419.269 79.6932 415.35 75.7072 415.111 70.3723ZM403.541 81.0396C402.245 80.5601 401.389 80.1701 400.493 79.9252C397.969 79.2345 396.132 80.3936 394.62 82.2583C393.78 83.2924 393.785 84.815 394.545 85.9281C395.813 87.7824 398.169 88.626 400.496 88.0565C402.759 87.5032 403.691 86.3175 403.871 83.569C403.918 82.8531 403.691 82.1184 403.541 81.0396ZM412.71 43.0807C412.643 45.9711 412.978 48.0619 414.972 49.232C415.85 49.7465 417.159 49.8372 418.209 49.6862C421.116 49.2703 422.363 46.4058 421.452 43.0807H412.71Z" fill="#748B9B"/>
<path d="M60.4952 83.0196C63.9777 79.8837 65.9875 78.5619 70.0254 77.5181C78.4617 75.3366 86.9141 73.203 95.4074 71.2521C104.825 69.0887 114.255 66.9364 123.753 65.1695C135.488 62.988 147.314 61.3086 159.069 59.2268C170.824 57.1457 182.547 54.878 194.265 52.596C197.231 52.0181 200.123 51.0579 203.055 50.3011C205.988 49.5437 208.925 48.7966 211.87 48.0878C216.838 46.8918 221.891 45.9802 226.769 44.4919C232.799 42.6525 238.983 41.8497 245.173 41.0281C253.627 39.9072 262.11 39.0138 270.557 37.854C273.544 37.4432 276.49 36.6346 279.407 35.8357C284.336 34.4855 289.253 33.0808 294.126 31.5439C299.572 29.8269 305.149 28.9101 310.774 27.9953C317.68 26.8724 324.463 25.0084 331.311 23.5169C337.976 22.0655 344.666 20.7315 351.323 19.2484C355.387 18.3433 359.405 17.2263 363.457 16.2648C364.658 15.979 365.966 15.2663 367.303 16.8459C366.775 17.3021 366.331 17.9753 365.738 18.1515C361.928 19.2827 358.124 20.4859 354.244 21.3308C342.026 23.9925 329.776 26.5051 317.539 29.0754C316.799 29.2309 316.063 29.4758 315.315 29.5218C305.952 30.0926 297.108 33.0289 288.143 35.4172C287.412 35.6122 286.673 35.8273 285.991 36.1454C277.595 40.0595 268.587 41.2063 259.507 42.1283C253.662 42.7218 247.814 43.3781 242.02 44.3312C237.734 45.0361 233.519 46.2076 229.298 47.2721C224.157 48.5686 219.045 49.9772 213.917 51.3222C212.634 51.6591 211.312 51.86 210.049 52.2546C197.339 56.2231 184.133 57.8156 171.147 60.4689C161.485 62.4437 151.818 64.3382 142.051 65.6723C123.824 68.1603 105.688 71.1485 87.7394 75.2018C83.6744 76.1193 79.6255 77.1184 75.6006 78.1972C71.3906 79.3258 67.2265 80.5867 63.4197 82.8349C62.6436 83.293 61.5477 84.3893 60.4952 83.0196Z" fill="#748B9B"/>
<path d="M415.493 20.9611C421.635 23.7941 422.893 23.6628 428.868 19.5133C429.665 19.8445 430.635 20.3615 431.669 20.6571C434.689 21.5231 437.757 21.5587 440.48 19.906C442.893 18.4431 445.14 16.6688 447.29 14.8339C448.082 14.1585 448.518 12.9618 448.882 11.9214C449.261 10.8442 448.411 9.46474 447.292 9.32507C445.609 9.11427 443.891 8.94588 442.204 9.03928C433.12 9.54569 424.04 10.1374 414.959 10.7044C414.581 10.7279 414.199 10.7679 413.831 10.8511C399.012 14.1776 383.812 15.0647 368.905 17.832C367.088 18.1691 365.261 19.0554 363.087 17.715C363.579 17.1611 363.934 16.37 364.446 16.2505C367.395 15.56 370.365 14.9175 373.36 14.4638C382.54 13.0719 391.735 11.7758 400.924 10.4338C401.861 10.2974 402.807 10.1649 403.72 9.92429C410.913 8.02741 418.326 7.76355 425.672 7.15357C432.277 6.60519 438.927 6.54809 445.559 6.35149C450.39 6.20864 452.87 9.79958 451.034 14.2316C450.679 15.089 450.145 15.9276 449.512 16.6055C444.577 21.8951 438.751 24.9615 431.276 23.4155C429.916 23.134 428.776 23.0084 427.482 23.6697C423.826 25.5402 419.965 26.0975 416.37 24.9239C413.076 27.5452 410.185 29.9811 407.152 32.2274C402.029 36.0224 395.902 36.4296 389.861 37.0245C389.33 37.0771 388.585 36.9662 388.247 36.6262C385.846 34.2146 382.699 34.5124 379.732 34.124C379.179 34.0511 378.553 33.9679 378.13 33.6584C377.761 33.3897 377.533 32.813 377.447 32.3351C377.409 32.1293 377.887 31.6057 378.127 31.6085C381.325 31.6427 384.701 31.2332 387.559 32.8192C389.596 33.9483 391.497 34.0858 393.55 33.6583C401.307 32.0403 408.479 29.3318 413.516 22.7215C414.063 22.0032 414.884 21.494 415.493 20.9611Z" fill="#748B9B"/>
</svg>
