<?xml version="1.0" encoding="utf-8"?>
<svg width="25px" height="25px" viewBox="0 0 25 25" version="1.1" xmlns:xlink="http://www.w3.org/1999/xlink" xmlns="http://www.w3.org/2000/svg">
  <defs>
    <path d="M0 0L25 0L25 25L0 25L0 0Z" id="path_1" />
    <clipPath id="mask_1">
      <use xlink:href="#path_1" />
    </clipPath>
  </defs>
  <g id="mail-142">
    <path d="M0 0L25 0L25 25L0 25L0 0Z" id="Background" fill="#FFFFFF" fill-opacity="0" fill-rule="evenodd" stroke="none" />
    <g clip-path="url(#mask_1)">
      <g id="Group" transform="translate(0.19177246 3.2719727)">
        <g id="Group">
          <path d="M20.663 18.456L3.95367 18.456C1.77348 18.456 0 16.6825 0 14.5023L0 3.95367C0 1.77375 1.77375 0 3.95367 0L20.663 0C22.8429 0 24.6164 1.77375 24.6164 3.95367L24.6164 14.5023C24.6164 16.6825 22.8429 18.456 20.663 18.456L20.663 18.456ZM3.95365 1.15625C2.41102 1.15625 1.15613 2.41114 1.15613 3.95377L1.15613 14.5024C1.15613 16.0451 2.41102 17.3002 3.95365 17.3002L20.663 17.3002C22.2056 17.3002 23.4605 16.0451 23.4605 14.5024L23.4605 3.95377C23.4605 2.41114 22.2056 1.15625 20.663 1.15625L3.95365 1.15625L3.95365 1.15625Z" id="Shape" fill="#1D1D1B" fill-rule="evenodd" stroke="none" />
          <path d="M3.02071 4.00847C5.97577 6.88804 8.93084 9.76734 11.8859 12.6469C12.4368 13.1835 13.2822 12.34 12.7305 11.8023C9.77545 8.923 6.82039 6.04342 3.86532 3.16412C3.31446 2.62721 2.46903 3.47101 3.02071 4.00847L3.02071 4.00847L3.02071 4.00847Z" id="Shape" fill="#1D1D1B" fill-rule="evenodd" stroke="none" />
          <path d="M12.7305 12.6469C15.6856 9.76758 18.6407 6.88801 21.5957 4.00871C22.1471 3.47125 21.3022 2.62718 20.7511 3.16409C17.7961 6.04339 14.841 8.92296 11.8859 11.8023C11.3345 12.3397 12.1794 13.1838 12.7305 12.6469L12.7305 12.6469L12.7305 12.6469Z" id="Shape" fill="#1D1D1B" fill-rule="evenodd" stroke="none" />
          <path d="M21.5632 14.6853C19.5969 12.8205 17.6303 10.9559 15.664 9.09109C15.1063 8.56238 14.2603 9.40535 14.8194 9.9357C16.7857 11.8005 18.7522 13.6651 20.7186 15.5299C21.2763 16.0586 22.1222 15.2154 21.5632 14.6853L21.5632 14.6853L21.5632 14.6853Z" id="Shape" fill="#1D1D1B" fill-rule="evenodd" stroke="none" />
          <path d="M3.9512 15.5295C5.9175 13.6647 7.88408 11.8001 9.85038 9.93529C10.4092 9.40522 9.56374 8.5617 9.00577 9.09068C7.03946 10.9555 5.07289 12.8201 3.10658 14.6849C2.54779 15.215 3.39323 16.0588 3.9512 15.5295L3.9512 15.5295L3.9512 15.5295Z" id="Shape" fill="#1D1D1B" fill-rule="evenodd" stroke="none" />
        </g>
      </g>
    </g>
  </g>
</svg>