<svg width="23" height="24" viewBox="0 0 23 24" fill="none" xmlns="http://www.w3.org/2000/svg">
<path fill-rule="evenodd" clip-rule="evenodd" d="M15.9675 6.29787C14.7759 5.16142 13.1857 4.54232 11.5404 4.56776C8.5297 4.56776 5.97271 6.59892 5.061 9.33401C4.57758 10.7673 4.57758 12.3194 5.06099 13.7526H5.06522C5.98117 16.4835 8.53393 18.5147 11.5447 18.5147C13.0988 18.5147 14.433 18.1171 15.4671 17.415V17.4122C16.6841 16.6065 17.5153 15.3386 17.7739 13.9053H11.5404V9.4613H22.4257C22.5614 10.2331 22.625 11.0218 22.625 11.8063C22.625 15.3163 21.3706 18.2839 19.1879 20.2939L19.1902 20.2957C17.2778 22.0597 14.6529 23.0816 11.5404 23.0816C7.17698 23.0816 3.1867 20.6222 1.2276 16.7252C-0.409205 13.4643 -0.409201 9.62241 1.22761 6.3615C3.18671 2.46028 7.17698 0.000777696 11.5404 0.000777696C14.407 -0.033146 17.176 1.04393 19.2623 3.00303L15.9675 6.29787Z" fill="#0A3251"/>
</svg>
