<svg width="24" height="24" viewBox="0 0 24 24" fill="none" xmlns="http://www.w3.org/2000/svg">
<path d="M21.3723 0.0253906H1.70402C0.761848 0.0253906 0 0.769207 0 1.68883V21.4383C0 22.3579 0.761848 23.1062 1.70402 23.1062H21.3723C22.3145 23.1062 23.0809 22.3579 23.0809 21.4428V1.68883C23.0809 0.769207 22.3145 0.0253906 21.3723 0.0253906ZM6.84762 19.6937H3.42156V8.6762H6.84762V19.6937ZM5.13459 7.17505C4.03464 7.17505 3.14657 6.28697 3.14657 5.19153C3.14657 4.0961 4.03464 3.20802 5.13459 3.20802C6.23003 3.20802 7.1181 4.0961 7.1181 5.19153C7.1181 6.28247 6.23003 7.17505 5.13459 7.17505ZM19.6683 19.6937H16.2468V14.3382C16.2468 13.0625 16.2242 11.4171 14.4661 11.4171C12.6855 11.4171 12.415 12.81 12.415 14.2481V19.6937H8.99793V8.6762H12.2797V10.1819H12.3248C12.7801 9.31634 13.8981 8.40122 15.5615 8.40122C19.0282 8.40122 19.6683 10.6823 19.6683 13.6485V19.6937Z" fill="#0A3251"/>
</svg>
