<svg width="48" height="48" viewBox="0 0 48 48" fill="none" xmlns="http://www.w3.org/2000/svg">
<path fill-rule="evenodd" clip-rule="evenodd" d="M16.7244 0C15.3956 0 14.3185 1.07446 14.3185 2.4C14.3185 3.72554 15.3956 4.8 16.7244 4.8C18.0531 4.8 19.1302 3.72554 19.1302 2.4C19.1302 1.07446 18.0531 0 16.7244 0ZM23.8897 48C37.2054 48 48 37.2548 48 24C48 11.5522 38.48 1.31792 26.2923 0.117627C24.97 -0.0125977 23.8897 1.07446 23.8897 2.4C23.8897 3.72554 24.9722 4.78433 26.2908 4.94736C35.8103 6.12393 43.1779 14.2055 43.1779 24C43.1779 34.6039 34.5423 43.2 23.8897 43.2C14.6235 43.2 7.10212 36.4589 5.12845 28.1273C3.90513 22.963 8.92616 19.2 14.2456 19.2V24C14.2456 29.302 18.5634 33.6 23.8897 33.6C29.216 33.6 33.5338 29.302 33.5338 24C33.5338 18.698 29.216 14.4 23.8897 14.4H19.0676V9.6C19.0676 8.27446 17.9853 7.2 16.6567 7.2C15.3279 7.2 14.2456 8.27446 14.2456 9.6V14.4C6.67599 14.4 -0.905186 19.0748 0.0880356 26.5607C1.60048 37.962 11.3475 48 23.8897 48ZM19.0676 24V19.2H23.8897C26.5529 19.2 28.7118 21.3491 28.7118 24C28.7118 26.6509 26.5529 28.8 23.8897 28.8C21.2266 28.8 19.0676 26.6509 19.0676 24Z" fill="#0A3251"/>
</svg>
